<svg width="403" height="225" viewBox="0 0 403 225" fill="none" xmlns="http://www.w3.org/2000/svg">
<path d="M4.9972 14.1872C7.22377 14.1872 8.85906 12.8556 8.85374 11.0445C8.85906 9.66486 8.02277 8.67409 6.57391 8.45037V8.36515C7.71382 8.07218 8.45424 7.17729 8.44891 5.95215C8.45424 4.34881 7.13854 2.97985 5.03982 2.97985C3.03698 2.97985 1.42831 4.18901 1.37504 5.9628H2.96773C3.00502 4.96138 3.94784 4.35414 5.01851 4.35414C6.13179 4.35414 6.86155 5.03063 6.85622 6.03738C6.86155 7.09206 6.0146 7.78453 4.80544 7.78453H3.88392V9.12686H4.80544C6.31823 9.12686 7.19181 9.89391 7.19181 10.9912C7.19181 12.0512 6.27029 12.7703 4.98655 12.7703C3.80402 12.7703 2.8825 12.1631 2.81858 11.1936H1.146C1.21524 12.9727 2.79195 14.1872 4.9972 14.1872ZM14.6652 14.2192C17.1847 14.2192 18.6602 12.1631 18.6602 8.58887C18.6602 5.04128 17.1634 2.97985 14.6652 2.97985C12.1616 2.97985 10.6701 5.03596 10.6648 8.58887C10.6648 12.1578 12.1403 14.2139 14.6652 14.2192ZM14.6652 12.797C13.1897 12.797 12.3001 11.3161 12.3001 8.58887C12.3054 5.87225 13.195 4.37544 14.6652 4.37544C16.13 4.37544 17.0249 5.87225 17.0249 8.58887C17.0249 11.3161 16.1353 12.797 14.6652 12.797ZM20.5712 14.0381H22.1638V11.135L22.9575 10.3414L25.7381 14.0381H27.693L24.156 9.36657L27.4692 5.85627H25.5623L22.3023 9.31863H22.1638V3.12899H20.5712V14.0381Z" fill="#A5ADC0"/>
<path d="M1.43364 70.0381H8.61404V68.6265H3.70281V68.5466L5.87078 66.2774C7.8683 64.2586 8.43825 63.2945 8.43825 62.0747C8.43825 60.3222 7.0107 58.9798 4.95459 58.9798C2.91446 58.9798 1.42298 60.3009 1.42298 62.2931H2.99436C2.98904 61.1212 3.74543 60.3541 4.92263 60.3541C6.03058 60.3541 6.8722 61.036 6.8722 62.1226C6.8722 63.0867 6.29692 63.7792 5.12504 65.0203L1.43364 68.8449V70.0381ZM14.4308 70.2192C16.9503 70.2192 18.4258 68.1631 18.4258 64.5889C18.4258 61.0413 16.929 58.9798 14.4308 58.9798C11.9272 58.9798 10.4358 61.036 10.4304 64.5889C10.4304 68.1578 11.9059 70.2139 14.4308 70.2192ZM14.4308 68.797C12.9553 68.797 12.0657 67.3161 12.0657 64.5889C12.0711 61.8722 12.9606 60.3754 14.4308 60.3754C15.8956 60.3754 16.7905 61.8722 16.7905 64.5889C16.7905 67.3161 15.901 68.797 14.4308 68.797ZM20.3368 70.0381H21.9295V67.135L22.7231 66.3414L25.5037 70.0381H27.4586L23.9217 65.3666L27.2349 61.8563H25.3279L22.068 65.3186H21.9295V59.129H20.3368V70.0381Z" fill="#A5ADC0"/>
<path d="M6.62718 115.129H5.02384L2.30189 116.908V118.485L4.91198 116.78H4.9759V126.038H6.62718V115.129ZM13.3761 126.219C15.8956 126.219 17.3711 124.163 17.3711 120.589C17.3711 117.041 15.8743 114.98 13.3761 114.98C10.8726 114.98 9.38108 117.036 9.37575 120.589C9.37575 124.158 10.8513 126.214 13.3761 126.219ZM13.3761 124.797C11.9006 124.797 11.0111 123.316 11.0111 120.589C11.0164 117.872 11.9059 116.375 13.3761 116.375C14.841 116.375 15.7358 117.872 15.7358 120.589C15.7358 123.316 14.8463 124.797 13.3761 124.797ZM19.2821 126.038H20.8748V123.135L21.6685 122.341L24.449 126.038H26.4039L22.867 121.367L26.1802 117.856H24.2732L21.0133 121.319H20.8748V115.129H19.2821V126.038Z" fill="#A5ADC0"/>
<path d="M9.82453 182.187C12.0191 182.187 13.5852 180.637 13.5799 178.512C13.5852 176.402 12.115 174.868 10.1282 174.868C9.31849 174.868 8.56743 175.177 8.14129 175.593H8.07737L8.42361 172.541H13.0525V171.129H7.05464L6.44207 176.626L7.94953 176.85C8.35969 176.482 9.09477 176.232 9.75528 176.232C11.0497 176.243 11.9872 177.212 11.9872 178.544C11.9872 179.854 11.0763 180.802 9.82453 180.802C8.76984 180.802 7.93355 180.131 7.84832 179.194H6.25031C6.31423 180.93 7.82169 182.187 9.82453 182.187ZM15.5467 182.038H17.1394V179.135L17.9331 178.341L20.7136 182.038H22.6685L19.1316 177.367L22.4448 173.856H20.5379L17.2779 177.319H17.1394V171.129H15.5467V182.038Z" fill="#A5ADC0"/>
<path d="M47.4661 209.129V220.038H49.0321V212.139H49.1333L52.3507 220.022H53.6504L56.8677 212.144H56.9689V220.038H58.535V209.129H56.5375L53.0645 217.609H52.9366L49.4636 209.129H47.4661ZM64.2465 220.203C66.553 220.203 68.0605 218.515 68.0605 215.984C68.0605 213.438 66.553 211.75 64.2465 211.75C61.9401 211.75 60.4326 213.438 60.4326 215.984C60.4326 218.515 61.9401 220.203 64.2465 220.203ZM64.2519 218.866C62.7444 218.866 62.0413 217.551 62.0413 215.979C62.0413 214.413 62.7444 213.081 64.2519 213.081C65.7487 213.081 66.4518 214.413 66.4518 215.979C66.4518 217.551 65.7487 218.866 64.2519 218.866ZM71.4309 215.18C71.4309 213.875 72.2299 213.129 73.3379 213.129C74.4192 213.129 75.0744 213.838 75.0744 215.026V220.038H76.6671V214.834C76.6671 212.81 75.5538 211.75 73.8812 211.75C72.6507 211.75 71.8464 212.32 71.4682 213.188H71.367V211.856H69.8382V220.038H71.4309V215.18Z" fill="#A5ADC0"/>
<path d="M115.97 210.546H119.368V220.038H121.009V210.546H124.412V209.129H115.97V210.546ZM130.22 216.645C130.225 218.035 129.192 218.696 128.297 218.696C127.311 218.696 126.63 217.982 126.63 216.869V211.856H125.037V217.06C125.037 219.09 126.15 220.145 127.722 220.145C128.952 220.145 129.788 219.495 130.167 218.621H130.252V220.038H131.818V211.856H130.22V216.645ZM137.484 220.203C139.269 220.203 140.531 219.324 140.893 217.993L139.386 217.721C139.098 218.493 138.406 218.888 137.5 218.888C136.136 218.888 135.22 218.003 135.178 216.427H140.994V215.862C140.994 212.906 139.226 211.75 137.372 211.75C135.092 211.75 133.59 213.486 133.59 216C133.59 218.541 135.071 220.203 137.484 220.203ZM135.183 215.233C135.247 214.072 136.089 213.065 137.383 213.065C138.619 213.065 139.428 213.982 139.434 215.233H135.183Z" fill="#A5ADC0"/>
<path d="M182.809 220.038H184.471L186.767 211.867H186.852L189.148 220.038H190.805L193.835 209.129H192.099L189.979 217.582H189.878L187.667 209.129H185.952L183.741 217.577H183.64L181.515 209.129H179.784L182.809 220.038ZM197.929 220.203C199.713 220.203 200.976 219.324 201.338 217.993L199.831 217.721C199.543 218.493 198.85 218.888 197.945 218.888C196.581 218.888 195.665 218.003 195.623 216.427H201.439V215.862C201.439 212.906 199.671 211.75 197.817 211.75C195.537 211.75 194.035 213.486 194.035 216C194.035 218.541 195.516 220.203 197.929 220.203ZM195.628 215.233C195.692 214.072 196.533 213.065 197.828 213.065C199.064 213.065 199.873 213.982 199.879 215.233H195.628ZM206.269 220.198C207.761 220.198 208.347 219.287 208.634 218.765H208.767V220.038H210.323V209.129H208.73V213.183H208.634C208.347 212.677 207.803 211.75 206.28 211.75C204.304 211.75 202.85 213.31 202.85 215.963C202.85 218.611 204.282 220.198 206.269 220.198ZM206.621 218.84C205.199 218.84 204.458 217.588 204.458 215.947C204.458 214.323 205.183 213.103 206.621 213.103C208.011 213.103 208.757 214.237 208.757 215.947C208.757 217.668 207.995 218.84 206.621 218.84Z" fill="#A5ADC0"/>
<path d="M250.803 210.546H254.202V220.038H255.842V210.546H259.246V209.129H250.803V210.546ZM262.576 215.18C262.576 213.875 263.402 213.129 264.537 213.129C265.634 213.129 266.289 213.827 266.289 215.026V220.038H267.882V214.834C267.882 212.794 266.763 211.75 265.08 211.75C263.807 211.75 263.04 212.304 262.656 213.188H262.555V209.129H260.984V220.038H262.576V215.18ZM275.19 216.645C275.195 218.035 274.162 218.696 273.267 218.696C272.282 218.696 271.6 217.982 271.6 216.869V211.856H270.007V217.06C270.007 219.09 271.12 220.145 272.692 220.145C273.922 220.145 274.759 219.495 275.137 218.621H275.222V220.038H276.788V211.856H275.19V216.645Z" fill="#A5ADC0"/>
<path d="M319.609 220.038H321.255V215.281H325.889V213.87H321.255V210.546H326.374V209.129H319.609V220.038ZM328.168 220.038H329.761V215.042C329.761 213.971 330.586 213.199 331.715 213.199C332.046 213.199 332.419 213.257 332.546 213.294V211.771C332.387 211.75 332.072 211.734 331.87 211.734C330.911 211.734 330.091 212.277 329.792 213.156H329.707V211.856H328.168V220.038ZM333.925 220.038H335.517V211.856H333.925V220.038ZM334.729 210.594C335.278 210.594 335.736 210.168 335.736 209.646C335.736 209.124 335.278 208.692 334.729 208.692C334.175 208.692 333.722 209.124 333.722 209.646C333.722 210.168 334.175 210.594 334.729 210.594Z" fill="#1F3BB2"/>
<path d="M381.261 211.995H382.849C382.801 210.248 381.256 208.98 379.04 208.98C376.851 208.98 375.173 210.232 375.173 212.112C375.173 213.63 376.259 214.52 378.012 214.994L379.301 215.345C380.468 215.654 381.368 216.038 381.368 217.007C381.368 218.073 380.35 218.776 378.949 218.776C377.682 218.776 376.627 218.211 376.531 217.023H374.88C374.986 218.999 376.515 220.219 378.96 220.219C381.522 220.219 382.998 218.872 382.998 217.023C382.998 215.058 381.245 214.296 379.86 213.955L378.795 213.678C377.943 213.46 376.808 213.06 376.813 212.016C376.813 211.089 377.66 210.402 379.003 210.402C380.254 210.402 381.144 210.988 381.261 211.995ZM387.218 220.219C388.571 220.219 389.333 219.532 389.636 218.919H389.7V220.038H391.255V214.605C391.255 212.224 389.38 211.75 388.081 211.75C386.6 211.75 385.236 212.346 384.704 213.838L386.2 214.179C386.435 213.598 387.031 213.039 388.102 213.039C389.13 213.039 389.657 213.577 389.657 214.504V214.541C389.657 215.122 389.061 215.111 387.591 215.281C386.041 215.462 384.453 215.867 384.453 217.726C384.453 219.335 385.662 220.219 387.218 220.219ZM387.564 218.941C386.664 218.941 386.014 218.536 386.014 217.748C386.014 216.895 386.77 216.592 387.692 216.469C388.209 216.4 389.434 216.261 389.663 216.032V217.087C389.663 218.057 388.89 218.941 387.564 218.941ZM397.196 211.856H395.518V209.896H393.925V211.856H392.727V213.135H393.925V217.966C393.92 219.452 395.055 220.171 396.312 220.145C396.818 220.139 397.159 220.043 397.345 219.974L397.058 218.658C396.951 218.68 396.754 218.728 396.498 218.728C395.982 218.728 395.518 218.557 395.518 217.636V213.135H397.196V211.856Z" fill="#A5ADC0"/>
<line x1="48" y1="13.5381" x2="401" y2="13.5381" stroke="#EFF1FA"/>
<line x1="48" y1="69.5381" x2="401" y2="69.5381" stroke="#EFF1FA"/>
<line x1="48" y1="125.538" x2="401" y2="125.538" stroke="#EFF1FA"/>
<line x1="48" y1="181.538" x2="401" y2="181.538" stroke="#EFF1FA"/>
<path d="M48 98H78V181H48V98Z" fill="#C7E7DB"/>
<path d="M113 70H143V181H113V70Z" fill="#52BD95"/>
<path d="M178 92H208V181H178V92Z" fill="#C7E7DB"/>
<path d="M243 125H273V181H243V125Z" fill="#52BD95"/>
<path d="M308 46H338V181H308V46Z" fill="#C7E7DB"/>
<path d="M373 13H403V181H373V13Z" fill="#52BD95"/>
</svg>
