<svg width="148" height="140" viewBox="0 0 148 140" fill="none" xmlns="http://www.w3.org/2000/svg">
<circle cx="78.4331" cy="70.117" r="55.117" stroke="#FFEA00" stroke-width="28.5792"/>
<path d="M23.3161 70.117C23.3161 39.6767 47.9929 15 78.4331 15" stroke="#F1F3F6" stroke-width="28.5792"/>
<path d="M78.4399 15.0005C108.88 15.0005 133.557 39.6773 133.557 70.1175C133.557 100.558 108.88 125.235 78.4399 125.235C73.2717 125.235 68.2697 124.523 63.5264 123.193" stroke="#0F8CEA" stroke-width="28.5792"/>
<path d="M21.2378 54.8092C19.934 59.6928 19.239 64.825 19.239 70.1195C19.239 88.6519 27.7547 105.195 41.0865 116.05" stroke="#52BD95" stroke-width="36.7447"/>
<path d="M128.072 74.1172C129.203 74.1172 130.032 73.2821 130.032 72.1455C130.032 70.9943 129.232 70.1505 128.142 70.1505C127.742 70.1505 127.353 70.2926 127.11 70.4868H127.075L127.283 68.7354H129.766V68.0975H126.68L126.321 71.0204L126.994 71.1016C127.24 70.9247 127.66 70.7971 128.026 70.8C128.783 70.8058 129.336 71.3799 129.336 72.1571C129.336 72.9197 128.803 73.4793 128.072 73.4793C127.463 73.4793 126.979 73.0878 126.924 72.5514H126.228C126.271 73.4561 127.052 74.1172 128.072 74.1172ZM133.04 74.1172C134.171 74.1172 135 73.2821 135 72.1455C135 70.9943 134.2 70.1505 133.11 70.1505C132.71 70.1505 132.321 70.2926 132.077 70.4868H132.043L132.251 68.7354H134.733V68.0975H131.648L131.289 71.0204L131.961 71.1016C132.208 70.9247 132.628 70.7971 132.994 70.8C133.75 70.8058 134.304 71.3799 134.304 72.1571C134.304 72.9197 133.771 73.4793 133.04 73.4793C132.431 73.4793 131.947 73.0878 131.892 72.5514H131.196C131.239 73.4561 132.019 74.1172 133.04 74.1172ZM139.179 72.9226C139.179 73.5721 139.585 74.1172 140.339 74.1172C141.082 74.1172 141.488 73.5721 141.488 72.9226V72.6094C141.488 71.9599 141.093 71.4147 140.339 71.4147C139.597 71.4147 139.179 71.9599 139.179 72.6094V72.9226ZM136.222 69.5241C136.222 70.1737 136.628 70.7188 137.382 70.7188C138.124 70.7188 138.53 70.1737 138.53 69.5241V69.211C138.53 68.5615 138.136 68.0163 137.382 68.0163C136.639 68.0163 136.222 68.5615 136.222 69.211V69.5241ZM136.442 74.036H137.103L141.186 68.0975H140.525L136.442 74.036ZM139.771 72.6094C139.771 72.2498 139.933 71.9135 140.339 71.9135C140.757 71.9135 140.896 72.2498 140.896 72.6094V72.9226C140.896 73.2821 140.745 73.6185 140.339 73.6185C139.922 73.6185 139.771 73.2821 139.771 72.9226V72.6094ZM136.813 69.211C136.813 68.8514 136.976 68.5151 137.382 68.5151C137.799 68.5151 137.938 68.8514 137.938 69.211V69.5241C137.938 69.8837 137.788 70.2201 137.382 70.2201C136.964 70.2201 136.813 69.8837 136.813 69.5241V69.211Z" fill="white"/>
<path d="M36.3415 33.2073H40.0879V32.5694H37.3274V32.523L38.6612 31.0963C39.6819 30.0032 39.9835 29.4928 39.9835 28.8346C39.9835 27.9183 39.2411 27.1876 38.1973 27.1876C37.1563 27.1876 36.3647 27.8951 36.3647 28.939H37.049C37.049 28.2634 37.4868 27.8139 38.1741 27.8139C38.8178 27.8139 39.3107 28.2083 39.3107 28.8346C39.3107 29.3826 38.9889 29.7886 38.3017 30.5396L36.3415 32.6854V33.2073ZM43.2224 33.2885C44.5331 33.2885 45.287 32.1779 45.287 30.238C45.287 28.3127 44.5215 27.1876 43.2224 27.1876C41.9233 27.1876 41.1578 28.3127 41.1578 30.238C41.1578 32.1779 41.9117 33.2885 43.2224 33.2885ZM43.2224 32.6506C42.3583 32.6506 41.8538 31.7836 41.8538 30.238C41.8538 28.6954 42.3641 27.8139 43.2224 27.8139C44.0807 27.8139 44.591 28.6954 44.591 30.238C44.591 31.7836 44.0865 32.6506 43.2224 32.6506ZM49.4161 32.0938C49.4161 32.7434 49.8221 33.2885 50.576 33.2885C51.3183 33.2885 51.7243 32.7434 51.7243 32.0938V31.7807C51.7243 31.1311 51.3299 30.586 50.576 30.586C49.8337 30.586 49.4161 31.1311 49.4161 31.7807V32.0938ZM46.4584 28.6954C46.4584 29.3449 46.8644 29.8901 47.6183 29.8901C48.3606 29.8901 48.7666 29.3449 48.7666 28.6954V28.3822C48.7666 27.7327 48.3722 27.1876 47.6183 27.1876C46.876 27.1876 46.4584 27.7327 46.4584 28.3822V28.6954ZM46.6788 33.2073H47.3399L51.4227 27.2688H50.7616L46.6788 33.2073ZM50.0076 31.7807C50.0076 31.4211 50.17 31.0847 50.576 31.0847C50.9935 31.0847 51.1327 31.4211 51.1327 31.7807V32.0938C51.1327 32.4534 50.9819 32.7898 50.576 32.7898C50.1584 32.7898 50.0076 32.4534 50.0076 32.0938V31.7807ZM47.05 28.3822C47.05 28.0227 47.2124 27.6863 47.6183 27.6863C48.0359 27.6863 48.175 28.0227 48.175 28.3822V28.6954C48.175 29.055 48.0243 29.3913 47.6183 29.3913C47.2008 29.3913 47.05 29.055 47.05 28.6954V28.3822Z" fill="#333333"/>
<path d="M19.3542 82.3874H18.6351L17.1505 83.3733V84.104L18.6003 83.1413H18.6351V88.326H19.3542V82.3874ZM21.2477 88.326H22.0016L24.6461 83.0601V82.3874H20.8418V83.0254H23.9038V83.0717L21.2477 88.326ZM28.7542 87.2125C28.7542 87.862 29.1602 88.4071 29.9141 88.4071C30.6564 88.4071 31.0624 87.862 31.0624 87.2125V86.8993C31.0624 86.2498 30.668 85.7047 29.9141 85.7047C29.1718 85.7047 28.7542 86.2498 28.7542 86.8993V87.2125ZM25.7966 83.8141C25.7966 84.4636 26.2025 85.0087 26.9564 85.0087C27.6988 85.0087 28.1047 84.4636 28.1047 83.8141V83.5009C28.1047 82.8514 27.7104 82.3062 26.9564 82.3062C26.2141 82.3062 25.7966 82.8514 25.7966 83.5009V83.8141ZM26.017 88.326H26.6781L30.7608 82.3874H30.0997L26.017 88.326ZM29.3458 86.8993C29.3458 86.5398 29.5082 86.2034 29.9141 86.2034C30.3317 86.2034 30.4709 86.5398 30.4709 86.8993V87.2125C30.4709 87.572 30.3201 87.9084 29.9141 87.9084C29.4966 87.9084 29.3458 87.572 29.3458 87.2125V86.8993ZM26.3881 83.5009C26.3881 83.1413 26.5505 82.805 26.9564 82.805C27.374 82.805 27.5132 83.1413 27.5132 83.5009V83.8141C27.5132 84.1736 27.3624 84.51 26.9564 84.51C26.5389 84.51 26.3881 84.1736 26.3881 83.8141V83.5009Z" fill="white"/>
<path d="M50.4967 121.068C51.6826 121.068 52.509 120.375 52.5148 119.409C52.509 118.658 52.0074 118.021 51.3666 117.902V117.867C51.9233 117.722 52.2887 117.177 52.2945 116.545C52.2887 115.64 51.5289 114.967 50.4967 114.967C49.4528 114.967 48.6931 115.64 48.6989 116.545C48.6931 117.177 49.0584 117.722 49.6268 117.867V117.902C48.9743 118.021 48.4727 118.658 48.4785 119.409C48.4727 120.375 49.2991 121.068 50.4967 121.068ZM50.4967 120.43C49.6819 120.43 49.1802 120.013 49.186 119.375C49.1802 118.705 49.734 118.226 50.4967 118.226C51.2477 118.226 51.8015 118.705 51.8073 119.375C51.8015 120.013 51.2999 120.43 50.4967 120.43ZM50.4967 117.612C49.8471 117.612 49.389 117.206 49.3948 116.591C49.389 115.988 49.8297 115.593 50.4967 115.593C51.152 115.593 51.5927 115.988 51.5985 116.591C51.5927 117.206 51.1346 117.612 50.4967 117.612ZM56.6534 119.873C56.6534 120.523 57.0594 121.068 57.8133 121.068C58.5556 121.068 58.9615 120.523 58.9615 119.873V119.56C58.9615 118.911 58.5672 118.366 57.8133 118.366C57.071 118.366 56.6534 118.911 56.6534 119.56V119.873ZM53.6957 116.475C53.6957 117.125 54.1017 117.67 54.8556 117.67C55.5979 117.67 56.0039 117.125 56.0039 116.475V116.162C56.0039 115.512 55.6095 114.967 54.8556 114.967C54.1133 114.967 53.6957 115.512 53.6957 116.162V116.475ZM53.9161 120.987H54.5772L58.66 115.048H57.9988L53.9161 120.987ZM57.2449 119.56C57.2449 119.201 57.4073 118.864 57.8133 118.864C58.2308 118.864 58.37 119.201 58.37 119.56V119.873C58.37 120.233 58.2192 120.569 57.8133 120.569C57.3957 120.569 57.2449 120.233 57.2449 119.873V119.56ZM54.2873 116.162C54.2873 115.802 54.4496 115.466 54.8556 115.466C55.2732 115.466 55.4123 115.802 55.4123 116.162V116.475C55.4123 116.835 55.2616 117.171 54.8556 117.171C54.438 117.171 54.2873 116.835 54.2873 116.475V116.162Z" fill="white"/>
</svg>
